<svg width="440" height="531" viewBox="0 0 440 531" fill="none" xmlns="http://www.w3.org/2000/svg">
<g clip-path="url(#clip0_428_34)">
<path d="M3.14576 253.532C4.76248 256.232 6.95152 258.545 9.55872 260.308C12.1659 262.07 15.1278 263.239 18.2359 263.733C21.3439 264.227 24.5224 264.034 27.5475 263.166C30.5727 262.299 33.3708 260.779 35.7449 258.713L102.103 296.772L99.6301 257.097L36.9943 227.038C33.2595 223.28 28.2759 221.022 22.9877 220.693C17.6996 220.363 12.4743 221.985 8.30204 225.251C4.12977 228.517 1.30039 233.199 0.350061 238.412C-0.600271 243.624 0.394462 249.004 3.14576 253.532Z" fill="#FFB8B8"/>
<path d="M195.259 405.996C175.575 433.546 176.279 479.639 181.771 530.085H274.838L278.884 520.643L284.28 530.085H371.951C371.951 530.085 365.207 401.949 353.068 397.903C340.929 393.857 195.259 405.996 195.259 405.996Z" fill="#232323"/>
<path d="M274.838 118.153C300.91 118.153 322.046 97.0169 322.046 70.9447C322.046 44.8725 300.91 23.7368 274.838 23.7368C248.766 23.7368 227.63 44.8725 227.63 70.9447C227.63 97.0169 248.766 118.153 274.838 118.153Z" fill="#FFB8B8"/>
<path d="M308.958 130.401L318.19 148.095L382.043 176.559L365.259 338.988L358.194 355.809L362.011 370.416L352.809 381.196C362.046 389.554 363.219 398.303 358.194 407.353L328.79 414.088C328.79 414.088 165.295 428.627 179.074 403.298C194.129 375.623 197.963 293.89 164.727 250.214C136.51 213.134 158.173 165.02 158.173 165.02L225.103 145.017L249.721 130.401L308.958 130.401Z" fill="#141414"/>
<path d="M295.797 1.79259C296.018 1.32322 296.375 0.930871 296.822 0.665929C297.268 0.400988 297.784 0.275547 298.302 0.305726C276.689 -0.987079 253.925 1.53193 235.843 13.442C231.463 16.3274 227.333 19.769 222.566 21.8621C222.341 21.9632 222.146 22.1208 222 22.3195C221.854 22.5182 221.762 22.7514 221.733 22.9962C221.703 23.2411 221.738 23.4895 221.832 23.7171C221.927 23.9448 222.08 24.144 222.274 24.2955L222.798 24.706C223.004 24.868 223.163 25.0835 223.255 25.3292C223.348 25.5748 223.371 25.8411 223.323 26.0991C223.275 26.3572 223.157 26.5971 222.982 26.7927C222.807 26.9884 222.582 27.1323 222.331 27.2089C222.069 27.2887 221.835 27.4416 221.657 27.6497C221.48 27.8577 221.365 28.1122 221.327 28.3832C221.289 28.6542 221.33 28.9304 221.444 29.1793C221.557 29.4281 221.74 29.6392 221.97 29.7877L225.982 32.3809C226.184 32.5092 226.351 32.6862 226.467 32.8956C226.582 33.1051 226.644 33.3403 226.645 33.5796C226.646 33.819 226.588 34.0548 226.474 34.2655C226.36 34.4762 226.196 34.6551 225.995 34.7856C225.655 34.9954 225.298 35.1764 224.928 35.3265C224.698 35.413 224.494 35.5574 224.335 35.7458C224.177 35.9341 224.07 36.1601 224.024 36.4019C223.979 36.6436 223.996 36.8931 224.075 37.1262C224.154 37.3592 224.291 37.5681 224.474 37.7326C226.212 39.2793 227.544 41.2275 228.356 43.4075C229.693 46.8846 229.934 50.6714 230.16 54.39C231.542 49.0246 237.397 45.8662 242.929 45.5453C248.46 45.2244 253.854 47.0494 259.237 48.3613C270.962 51.2105 283.138 51.6789 295.047 49.7389C291.003 57.8542 294.414 67.534 297.847 75.9261L308.958 71.1636C324.218 62.5497 313.589 98.9879 307.884 103.99C319.532 108.029 350.021 63.2061 340.213 46.2039C335.111 37.3595 338.732 25.9525 328.702 17.5643C323.785 12.389 313.97 14.6893 308.958 10.388C306.986 8.69509 309.992 4.16595 307.282 3.17891C306.381 2.85106 295.945 1.46217 295.797 1.79259Z" fill="#232323"/>
<path d="M215.833 149.587C207.171 188.045 184.953 277.839 162.412 296.618C160.983 297.968 159.269 298.98 157.396 299.58C78.1651 318.882 52.7778 269.646 52.7778 269.646C52.7778 269.646 74.0108 259.299 74.5494 239.074L117.369 252.36L154.696 168.358L160.189 163.235L160.22 163.204L215.833 149.587Z" fill="#3F3D56"/>
<path d="M384.767 504.727C387.036 502.546 388.799 499.894 389.932 496.958C391.065 494.022 391.541 490.873 391.325 487.734C391.109 484.594 390.208 481.54 388.685 478.786C387.161 476.033 385.052 473.646 382.507 471.796L404.718 398.594L366.608 409.9L351.358 477.681C348.533 482.163 347.45 487.526 348.315 492.753C349.179 497.981 351.931 502.709 356.05 506.043C360.168 509.377 365.366 511.084 370.659 510.842C375.951 510.599 380.971 508.423 384.767 504.727Z" fill="#FFB8B8"/>
<path d="M364.438 172.464L382.043 176.559C382.043 176.559 454.807 318.134 437.273 345.11C419.739 372.086 398.258 461.396 398.258 461.396C398.258 461.396 366.487 455.08 354.347 438.894L376.577 332.971L353.647 243.95L364.438 172.464Z" fill="#141414"/>
<path d="M30.4492 382.698L31.0814 154.683C31.0994 150.068 32.9473 145.649 36.2197 142.394C39.492 139.14 43.9216 137.317 48.5366 137.324L220.739 137.802C225.354 137.82 229.773 139.668 233.027 142.94C236.282 146.212 238.105 150.642 238.097 155.257L237.465 383.272C237.447 387.887 235.599 392.307 232.327 395.561C229.055 398.815 224.625 400.639 220.01 400.631L47.808 400.154C43.193 400.136 38.7735 398.288 35.5193 395.015C32.265 391.743 30.4417 387.313 30.4492 382.698Z" fill="#E0E0E0"/>
<path d="M43.8487 313.865L44.2551 167.276C44.2719 162.954 46.0025 158.815 49.0672 155.767C52.1319 152.719 56.2804 151.012 60.6025 151.019L208.596 151.429C212.918 151.446 217.057 153.177 220.105 156.241C223.153 159.306 224.86 163.455 224.853 167.777L224.291 370.679C224.274 375.001 222.543 379.14 219.478 382.188C216.414 385.236 212.265 386.943 207.943 386.936L116.264 386.682C97.0118 386.607 78.5753 378.898 64.9995 365.247C51.4237 351.596 43.8172 333.117 43.8487 313.865Z" fill="#F5F5F5"/>
<path d="M191.638 215.409H76.2417C74.4054 215.409 72.6443 214.68 71.3458 213.382C70.0473 212.083 69.3179 210.322 69.3179 208.486C69.3179 206.649 70.0473 204.888 71.3458 203.59C72.6443 202.291 74.4054 201.562 76.2417 201.562H191.638C193.475 201.562 195.236 202.291 196.534 203.59C197.833 204.888 198.562 206.649 198.562 208.486C198.562 210.322 197.833 212.083 196.534 213.382C195.236 214.68 193.475 215.409 191.638 215.409Z" fill="#7A7A7A"/>
<path d="M101.629 183.483H76.2417C74.4054 183.483 72.6443 182.754 71.3458 181.455C70.0473 180.157 69.3179 178.396 69.3179 176.559C69.3179 174.723 70.0473 172.962 71.3458 171.663C72.6443 170.365 74.4054 169.635 76.2417 169.635H101.629C103.465 169.635 105.226 170.365 106.525 171.663C107.823 172.962 108.553 174.723 108.553 176.559C108.553 178.396 107.823 180.157 106.525 181.455C105.226 182.754 103.465 183.483 101.629 183.483Z" fill="#7A7A7A"/>
<path d="M191.32 246.848H75.9238C74.0875 246.848 72.3264 246.118 71.0279 244.82C69.7295 243.521 69 241.76 69 239.924C69 238.087 69.7295 236.326 71.0279 235.028C72.3264 233.729 74.0875 233 75.9238 233H191.32C193.157 233 194.918 233.729 196.216 235.028C197.515 236.326 198.244 238.087 198.244 239.924C198.244 241.76 197.515 243.521 196.216 244.82C194.918 246.118 193.157 246.848 191.32 246.848Z" fill="#7A7A7A"/>
<path d="M191.638 279.262H76.2417C74.4054 279.262 72.6443 278.533 71.3458 277.234C70.0473 275.936 69.3179 274.175 69.3179 272.339C69.3179 270.502 70.0473 268.741 71.3458 267.443C72.6443 266.144 74.4054 265.415 76.2417 265.415H191.638C193.475 265.415 195.236 266.144 196.534 267.443C197.833 268.741 198.562 270.502 198.562 272.339C198.562 274.175 197.833 275.936 196.534 277.234C195.236 278.533 193.475 279.262 191.638 279.262Z" fill="#7A7A7A"/>
<path d="M182.301 363.387C197.517 363.387 209.851 351.053 209.851 335.837C209.851 320.622 197.517 308.287 182.301 308.287C167.086 308.287 154.751 320.622 154.751 335.837C154.751 351.053 167.086 363.387 182.301 363.387Z" fill="#6701B8"/>
<path d="M178.542 350.176C178.067 350.176 177.598 350.065 177.172 349.852C176.747 349.639 176.376 349.33 176.091 348.95L168.575 338.928C168.333 338.606 168.157 338.24 168.056 337.85C167.956 337.46 167.934 337.054 167.991 336.655C168.047 336.256 168.182 335.873 168.387 335.526C168.592 335.179 168.864 334.877 169.186 334.635C169.508 334.393 169.875 334.218 170.265 334.118C170.655 334.018 171.061 333.996 171.46 334.053C171.858 334.11 172.242 334.246 172.588 334.451C172.935 334.657 173.237 334.928 173.478 335.251L178.396 341.807L191.025 322.863C191.247 322.527 191.534 322.238 191.869 322.013C192.203 321.788 192.579 321.631 192.974 321.551C193.37 321.471 193.777 321.47 194.172 321.548C194.568 321.626 194.944 321.782 195.28 322.005C195.615 322.229 195.904 322.517 196.128 322.852C196.352 323.187 196.508 323.563 196.586 323.959C196.665 324.354 196.664 324.761 196.585 325.157C196.506 325.552 196.349 325.928 196.125 326.263L181.093 348.811C180.821 349.219 180.455 349.555 180.026 349.793C179.597 350.03 179.118 350.161 178.628 350.175C178.599 350.175 178.571 350.176 178.542 350.176Z" fill="white"/>
<path d="M123.554 84.2419C130.777 84.2419 136.632 78.3866 136.632 71.1636C136.632 63.9407 130.777 58.0853 123.554 58.0853C116.331 58.0853 110.476 63.9407 110.476 71.1636C110.476 78.3866 116.331 84.2419 123.554 84.2419Z" fill="#F5F5F5"/>
<path d="M75.8571 460.435C83.08 460.435 88.9354 454.58 88.9354 447.357C88.9354 440.134 83.08 434.279 75.8571 434.279C68.6342 434.279 62.7788 440.134 62.7788 447.357C62.7788 454.58 68.6342 460.435 75.8571 460.435Z" fill="#F5F5F5"/>
<path d="M376.657 135.016C383.88 135.016 389.736 129.161 389.736 121.938C389.736 114.715 383.88 108.86 376.657 108.86C369.434 108.86 363.579 114.715 363.579 121.938C363.579 129.161 369.434 135.016 376.657 135.016Z" fill="#F5F5F5"/>
</g>
<defs>
<clipPath id="clip0_428_34">
<rect width="440" height="530.085" fill="white"/>
</clipPath>
</defs>
</svg>
