<svg width="269" height="37" viewBox="0 0 269 37" fill="none" xmlns="http://www.w3.org/2000/svg">
<path d="M39.1361 2.30398V36H30.9281V15.792L23.3921 36H16.7681L9.18407 15.744V36H0.976074V2.30398H10.6721L20.1281 25.632L29.4881 2.30398H39.1361Z" fill="#141414"/>
<path d="M43.4066 22.56C43.4066 19.808 43.9186 17.392 44.9426 15.312C45.9986 13.232 47.4226 11.632 49.2146 10.512C51.0066 9.39198 53.0066 8.83198 55.2146 8.83198C57.1026 8.83198 58.7506 9.21598 60.1586 9.98398C61.5986 10.752 62.7026 11.76 63.4706 13.008V9.21598H71.6786V36H63.4706V32.208C62.6706 33.456 61.5506 34.464 60.1106 35.232C58.7026 36 57.0546 36.384 55.1666 36.384C52.9906 36.384 51.0066 35.824 49.2146 34.704C47.4226 33.552 45.9986 31.936 44.9426 29.856C43.9186 27.744 43.4066 25.312 43.4066 22.56ZM63.4706 22.608C63.4706 20.56 62.8946 18.944 61.7426 17.76C60.6226 16.576 59.2466 15.984 57.6146 15.984C55.9826 15.984 54.5906 16.576 53.4386 17.76C52.3186 18.912 51.7586 20.512 51.7586 22.56C51.7586 24.608 52.3186 26.24 53.4386 27.456C54.5906 28.64 55.9826 29.232 57.6146 29.232C59.2466 29.232 60.6226 28.64 61.7426 27.456C62.8946 26.272 63.4706 24.656 63.4706 22.608Z" fill="#141414"/>
<path d="M92.5447 29.04V36H88.3687C85.3927 36 83.0727 35.28 81.4087 33.84C79.7447 32.368 78.9127 29.984 78.9127 26.688V16.032H75.6487V9.21598H78.9127V2.68798H87.1207V9.21598H92.4967V16.032H87.1207V26.784C87.1207 27.584 87.3127 28.16 87.6967 28.512C88.0807 28.864 88.7207 29.04 89.6167 29.04H92.5447Z" fill="#141414"/>
<path d="M113.581 8.92798C116.653 8.92798 119.117 9.95198 120.973 12C122.829 14.016 123.757 16.8 123.757 20.352V36H115.597V21.456C115.597 19.664 115.133 18.272 114.205 17.28C113.277 16.288 112.029 15.792 110.461 15.792C108.893 15.792 107.645 16.288 106.717 17.28C105.789 18.272 105.325 19.664 105.325 21.456V36H97.1167V0.47998H105.325V12.816C106.157 11.632 107.293 10.688 108.733 9.98398C110.173 9.27998 111.789 8.92798 113.581 8.92798Z" fill="#141414"/>
<path d="M154.708 22.176C154.708 22.944 154.66 23.744 154.564 24.576H135.988C136.116 26.24 136.644 27.52 137.572 28.416C138.532 29.28 139.7 29.712 141.076 29.712C143.124 29.712 144.548 28.848 145.348 27.12H154.084C153.636 28.88 152.82 30.464 151.636 31.872C150.484 33.28 149.028 34.384 147.268 35.184C145.508 35.984 143.54 36.384 141.364 36.384C138.74 36.384 136.404 35.824 134.356 34.704C132.308 33.584 130.708 31.984 129.556 29.904C128.404 27.824 127.828 25.392 127.828 22.608C127.828 19.824 128.388 17.392 129.508 15.312C130.66 13.232 132.26 11.632 134.308 10.512C136.356 9.39198 138.708 8.83198 141.364 8.83198C143.956 8.83198 146.26 9.37598 148.276 10.464C150.292 11.552 151.86 13.104 152.98 15.12C154.132 17.136 154.708 19.488 154.708 22.176ZM146.308 20.016C146.308 18.608 145.828 17.488 144.868 16.656C143.908 15.824 142.708 15.408 141.268 15.408C139.892 15.408 138.724 15.808 137.764 16.608C136.836 17.408 136.26 18.544 136.036 20.016H146.308Z" fill="#141414"/>
<path d="M185.487 9.21598V36H177.279V32.352C176.447 33.536 175.311 34.496 173.871 35.232C172.463 35.936 170.895 36.288 169.167 36.288C167.119 36.288 165.311 35.84 163.743 34.944C162.175 34.016 160.959 32.688 160.095 30.96C159.231 29.232 158.799 27.2 158.799 24.864V9.21598H166.959V23.76C166.959 25.552 167.423 26.944 168.351 27.936C169.279 28.928 170.527 29.424 172.095 29.424C173.695 29.424 174.959 28.928 175.887 27.936C176.815 26.944 177.279 25.552 177.279 23.76V9.21598H185.487Z" fill="#141414"/>
<path d="M202.278 36.384C199.942 36.384 197.862 35.984 196.038 35.184C194.214 34.384 192.774 33.296 191.718 31.92C190.662 30.512 190.07 28.944 189.942 27.216H198.054C198.15 28.144 198.582 28.896 199.35 29.472C200.118 30.048 201.062 30.336 202.182 30.336C203.206 30.336 203.99 30.144 204.534 29.76C205.11 29.344 205.398 28.816 205.398 28.176C205.398 27.408 204.998 26.848 204.198 26.496C203.398 26.112 202.102 25.696 200.31 25.248C198.39 24.8 196.79 24.336 195.51 23.856C194.23 23.344 193.126 22.56 192.198 21.504C191.27 20.416 190.806 18.96 190.806 17.136C190.806 15.6 191.222 14.208 192.054 12.96C192.918 11.68 194.166 10.672 195.798 9.93598C197.462 9.19998 199.43 8.83198 201.702 8.83198C205.062 8.83198 207.702 9.66398 209.622 11.328C211.574 12.992 212.694 15.2 212.982 17.952H205.398C205.27 17.024 204.854 16.288 204.15 15.744C203.478 15.2 202.582 14.928 201.462 14.928C200.502 14.928 199.766 15.12 199.254 15.504C198.742 15.856 198.486 16.352 198.486 16.992C198.486 17.76 198.886 18.336 199.686 18.72C200.518 19.104 201.798 19.488 203.526 19.872C205.51 20.384 207.126 20.896 208.374 21.408C209.622 21.888 210.71 22.688 211.638 23.808C212.598 24.896 213.094 26.368 213.126 28.224C213.126 29.792 212.678 31.2 211.782 32.448C210.918 33.664 209.654 34.624 207.99 35.328C206.358 36.032 204.454 36.384 202.278 36.384Z" fill="#141414"/>
<path d="M245.504 36L238.496 23.28H236.528V36H228.32V2.30398H242.096C244.752 2.30398 247.008 2.76798 248.864 3.69598C250.752 4.62398 252.16 5.90398 253.088 7.53598C254.016 9.13598 254.48 10.928 254.48 12.912C254.48 15.152 253.84 17.152 252.56 18.912C251.312 20.672 249.456 21.92 246.992 22.656L254.768 36H245.504ZM236.528 17.472H241.616C243.12 17.472 244.24 17.104 244.976 16.368C245.744 15.632 246.128 14.592 246.128 13.248C246.128 11.968 245.744 10.96 244.976 10.224C244.24 9.48798 243.12 9.11998 241.616 9.11998H236.528V17.472Z" fill="#141414"/>
<path d="M263.472 36.384C262.032 36.384 260.848 35.968 259.92 35.136C259.024 34.272 258.576 33.216 258.576 31.968C258.576 30.688 259.024 29.616 259.92 28.752C260.848 27.888 262.032 27.456 263.472 27.456C264.88 27.456 266.032 27.888 266.928 28.752C267.856 29.616 268.32 30.688 268.32 31.968C268.32 33.216 267.856 34.272 266.928 35.136C266.032 35.968 264.88 36.384 263.472 36.384Z" fill="#A839FF"/>
</svg>
