<svg width="440" height="384" viewBox="0 0 440 384" fill="none" xmlns="http://www.w3.org/2000/svg">
<g clip-path="url(#clip0_428_54)">
<path d="M396.721 199.447C396.778 246.87 378.448 292.468 345.584 326.656C343.603 328.731 341.568 330.755 339.48 332.729C336.298 335.756 333.01 338.665 329.614 341.457C297.852 367.625 258.2 382.33 217.056 383.199C215.685 383.23 214.309 383.246 212.928 383.246C180.114 383.246 138.842 365.719 101.388 341.457C98.2897 339.449 95.2185 337.396 92.175 335.295C90.7523 334.323 89.3366 333.336 87.9278 332.336C73.4823 322.136 59.7707 310.934 46.894 298.814C38.4632 290.902 30.5573 282.448 23.2266 273.507C-5.55187 238.008 -11.8994 206.022 29.1292 199.447C33.9869 198.671 38.7014 197.842 43.2728 196.959C49.8945 195.686 56.2316 194.312 62.2843 192.836C70.4372 190.855 78.097 188.706 85.2636 186.39C87.6743 185.614 90.0299 184.823 92.3302 184.016C126.339 172.071 149.101 156.494 164.595 139.593C167.223 136.733 169.645 133.837 171.863 130.908C175.256 126.448 178.338 121.76 181.087 116.878C184.881 110.094 188.068 102.987 190.611 95.6418L190.75 95.2383C203.078 59.6778 199.327 26.6935 212.928 15.6539C271.064 -31.5412 343.442 35.669 377.415 114.927C379.127 118.921 380.738 122.939 382.246 126.981C382.924 128.787 383.578 130.595 384.207 132.408C385.863 137.131 387.364 141.866 388.713 146.613C389.23 148.424 389.723 150.233 390.193 152.04C390.694 153.99 391.175 155.935 391.62 157.881C394.926 172.122 396.721 186.168 396.721 199.447Z" fill="#C98FF6"/>
<path d="M217.056 383.199C215.685 383.23 214.309 383.246 212.928 383.246C180.114 383.246 138.843 365.719 101.389 341.457C98.29 339.449 95.2189 337.396 92.1753 335.295L94.8447 319.051L175.655 308.322L216.213 339.336L217.056 383.199Z" fill="#2F2E41"/>
<path d="M220.946 93.1432H209.43C209.074 93.1434 208.732 93.2852 208.48 93.5373C208.227 93.7895 208.086 94.1315 208.085 94.4882V106.009C208.086 106.185 208.121 106.36 208.188 106.523C208.256 106.685 208.355 106.833 208.48 106.958C208.605 107.082 208.753 107.181 208.916 107.248C209.079 107.315 209.254 107.349 209.43 107.349H220.946C221.302 107.349 221.643 107.208 221.895 106.957C222.147 106.706 222.29 106.365 222.291 106.009V94.4882C222.29 94.1318 222.148 93.7903 221.896 93.5383C221.644 93.2863 221.302 93.1443 220.946 93.1432Z" fill="white"/>
<path d="M220.946 112.776H209.43C209.074 112.776 208.732 112.917 208.48 113.17C208.227 113.422 208.086 113.764 208.085 114.121V125.641C208.086 125.818 208.121 125.992 208.188 126.155C208.256 126.318 208.355 126.466 208.48 126.59C208.605 126.715 208.753 126.813 208.916 126.88C209.079 126.947 209.254 126.982 209.43 126.981H220.946C221.302 126.981 221.643 126.84 221.895 126.589C222.147 126.338 222.29 125.997 222.291 125.641V114.121C222.29 113.764 222.148 113.423 221.896 113.171C221.644 112.919 221.302 112.777 220.946 112.776Z" fill="#E0E0E0"/>
<path d="M220.946 132.408H209.43C209.074 132.408 208.732 132.55 208.48 132.802C208.227 133.054 208.086 133.396 208.085 133.753V145.268C208.085 145.445 208.12 145.62 208.187 145.783C208.255 145.947 208.354 146.095 208.479 146.22C208.604 146.345 208.752 146.444 208.915 146.512C209.079 146.579 209.254 146.614 209.43 146.613H220.946C221.303 146.613 221.645 146.471 221.897 146.219C222.149 145.967 222.291 145.625 222.291 145.268V133.753C222.29 133.396 222.148 133.055 221.896 132.803C221.644 132.551 221.302 132.409 220.946 132.408Z" fill="#E6E6E6"/>
<path d="M222.27 153.147C222.213 152.837 222.049 152.557 221.807 152.355C221.566 152.153 221.261 152.042 220.946 152.04H209.43C209.074 152.04 208.732 152.182 208.48 152.434C208.227 152.686 208.086 153.028 208.085 153.385V164.901C208.085 165.077 208.12 165.252 208.187 165.416C208.255 165.579 208.354 165.727 208.479 165.852C208.604 165.977 208.752 166.076 208.915 166.144C209.079 166.211 209.254 166.246 209.43 166.246H220.946C221.303 166.245 221.645 166.104 221.897 165.852C222.149 165.599 222.291 165.257 222.291 164.901V153.385C222.292 153.305 222.285 153.226 222.27 153.147Z" fill="#E6E6E6"/>
<path d="M221.468 171.776C221.303 171.707 221.125 171.672 220.946 171.672H209.43C209.254 171.672 209.079 171.707 208.915 171.774C208.752 171.841 208.604 171.941 208.479 172.065C208.354 172.19 208.255 172.339 208.187 172.502C208.12 172.666 208.085 172.841 208.085 173.017V184.533C208.085 184.71 208.119 184.885 208.186 185.049C208.253 185.212 208.353 185.361 208.478 185.486C208.603 185.611 208.751 185.71 208.915 185.777C209.078 185.844 209.254 185.879 209.43 185.878H220.946C221.303 185.878 221.645 185.736 221.897 185.484C222.149 185.232 222.291 184.89 222.291 184.533V173.017C222.29 172.753 222.212 172.494 222.066 172.273C221.92 172.053 221.712 171.88 221.468 171.776Z" fill="#E6E6E6"/>
<path d="M245.136 93.1432H233.62C233.264 93.1434 232.922 93.2852 232.67 93.5373C232.417 93.7895 232.276 94.1315 232.275 94.4882V106.009C232.276 106.185 232.311 106.36 232.378 106.523C232.446 106.685 232.545 106.833 232.67 106.958C232.795 107.082 232.943 107.181 233.106 107.248C233.269 107.315 233.444 107.349 233.62 107.349H245.136C245.492 107.349 245.833 107.208 246.085 106.957C246.337 106.706 246.48 106.365 246.481 106.009V94.4882C246.48 94.1318 246.338 93.7903 246.086 93.5383C245.834 93.2863 245.492 93.1443 245.136 93.1432Z" fill="#E0E0E0"/>
<path d="M245.136 112.776H233.62C233.264 112.776 232.922 112.917 232.669 113.17C232.417 113.422 232.276 113.764 232.275 114.121V125.641C232.276 125.818 232.311 125.992 232.378 126.155C232.446 126.318 232.545 126.466 232.67 126.59C232.795 126.715 232.943 126.813 233.106 126.88C233.269 126.947 233.444 126.982 233.62 126.981H245.136C245.492 126.981 245.833 126.84 246.085 126.589C246.337 126.338 246.48 125.997 246.481 125.641V114.121C246.48 113.764 246.338 113.423 246.086 113.171C245.834 112.919 245.492 112.777 245.136 112.776Z" fill="#A839FF"/>
<path d="M245.136 132.408H233.62C233.264 132.408 232.922 132.55 232.669 132.802C232.417 133.054 232.276 133.396 232.275 133.753V145.268C232.275 145.445 232.31 145.62 232.377 145.783C232.445 145.947 232.544 146.095 232.669 146.22C232.793 146.345 232.942 146.444 233.105 146.512C233.269 146.579 233.444 146.614 233.62 146.613H245.136C245.493 146.613 245.835 146.471 246.087 146.219C246.339 145.967 246.481 145.625 246.481 145.268V133.753C246.48 133.396 246.338 133.055 246.086 132.803C245.834 132.551 245.492 132.409 245.136 132.408Z" fill="#881ADE"/>
<path d="M245.136 152.04H233.62C233.338 152.04 233.064 152.129 232.835 152.295C232.607 152.46 232.436 152.693 232.348 152.961C232.3 153.097 232.275 153.241 232.275 153.385V164.901C232.275 165.077 232.31 165.252 232.377 165.416C232.444 165.579 232.544 165.727 232.668 165.852C232.793 165.977 232.942 166.076 233.105 166.144C233.269 166.211 233.444 166.246 233.62 166.246H245.136C245.493 166.245 245.835 166.104 246.087 165.851C246.339 165.599 246.481 165.257 246.481 164.901V153.385C246.48 153.029 246.338 152.687 246.086 152.435C245.834 152.183 245.492 152.041 245.136 152.04Z" fill="#A839FF"/>
<path d="M245.136 171.672H233.62C233.444 171.672 233.269 171.707 233.105 171.774C232.942 171.841 232.793 171.941 232.669 172.065C232.544 172.19 232.445 172.339 232.377 172.502C232.31 172.666 232.275 172.841 232.275 173.017V184.533C232.275 184.71 232.31 184.885 232.377 185.048C232.445 185.211 232.544 185.36 232.669 185.485C232.793 185.61 232.942 185.709 233.105 185.776C233.269 185.844 233.444 185.878 233.62 185.878H245.136C245.493 185.878 245.835 185.736 246.087 185.484C246.339 185.232 246.481 184.89 246.481 184.533V173.017C246.481 172.661 246.339 172.319 246.087 172.066C245.835 171.814 245.493 171.672 245.136 171.672Z" fill="#E6E6E6"/>
<path d="M269.326 93.1432H257.81C257.454 93.1434 257.112 93.2852 256.859 93.5373C256.607 93.7895 256.465 94.1315 256.465 94.4882V106.009C256.466 106.185 256.5 106.36 256.568 106.523C256.636 106.685 256.735 106.833 256.86 106.958C256.985 107.082 257.133 107.181 257.296 107.248C257.459 107.315 257.634 107.349 257.81 107.349H269.326C269.682 107.349 270.023 107.208 270.275 106.957C270.527 106.706 270.67 106.365 270.671 106.009V94.4882C270.67 94.1318 270.528 93.7903 270.276 93.5383C270.024 93.2863 269.682 93.1443 269.326 93.1432Z" fill="#9829EF"/>
<path d="M269.326 112.776H257.81C257.454 112.776 257.112 112.917 256.859 113.17C256.607 113.422 256.465 113.764 256.465 114.121V125.641C256.466 125.818 256.5 125.992 256.568 126.155C256.636 126.318 256.735 126.466 256.86 126.59C256.985 126.715 257.133 126.813 257.296 126.88C257.459 126.947 257.634 126.982 257.81 126.981H269.326C269.682 126.981 270.023 126.84 270.275 126.589C270.527 126.338 270.67 125.997 270.671 125.641V114.121C270.67 113.764 270.528 113.423 270.276 113.171C270.024 112.919 269.682 112.777 269.326 112.776Z" fill="#A839FF"/>
<path d="M269.326 132.408H257.81C257.454 132.408 257.112 132.55 256.859 132.802C256.607 133.054 256.465 133.396 256.465 133.753V145.268C256.465 145.445 256.5 145.62 256.567 145.783C256.634 145.947 256.734 146.095 256.858 146.22C256.983 146.345 257.132 146.444 257.295 146.512C257.459 146.579 257.634 146.614 257.81 146.613H269.326C269.683 146.613 270.025 146.471 270.277 146.219C270.529 145.967 270.671 145.625 270.671 145.268V133.753C270.67 133.396 270.528 133.055 270.276 132.803C270.024 132.551 269.682 132.409 269.326 132.408Z" fill="#E0E0E0"/>
<path d="M269.326 152.04H257.81C257.454 152.04 257.112 152.182 256.859 152.434C256.607 152.686 256.465 153.028 256.465 153.385V164.901C256.465 165.077 256.5 165.252 256.567 165.416C256.634 165.579 256.734 165.727 256.858 165.852C256.983 165.977 257.132 166.076 257.295 166.144C257.459 166.211 257.634 166.246 257.81 166.246H269.326C269.683 166.245 270.025 166.104 270.277 165.852C270.529 165.599 270.671 165.257 270.671 164.901V153.385C270.67 153.029 270.528 152.687 270.276 152.435C270.024 152.183 269.682 152.041 269.326 152.04Z" fill="#A839FF"/>
<path d="M269.326 171.672H257.81C257.634 171.672 257.459 171.707 257.295 171.774C257.132 171.841 256.983 171.941 256.858 172.065C256.734 172.19 256.634 172.339 256.567 172.502C256.5 172.666 256.465 172.841 256.465 173.017V184.533C256.465 184.71 256.5 184.885 256.567 185.048C256.634 185.211 256.734 185.36 256.858 185.485C256.983 185.61 257.132 185.709 257.295 185.776C257.459 185.844 257.634 185.878 257.81 185.878H269.326C269.683 185.878 270.025 185.736 270.277 185.484C270.529 185.232 270.671 184.89 270.671 184.533V173.017C270.671 172.661 270.529 172.319 270.277 172.066C270.025 171.814 269.683 171.672 269.326 171.672Z" fill="#881ADE"/>
<path d="M293.516 93.1432H282C281.644 93.1434 281.302 93.2852 281.049 93.5373C280.797 93.7895 280.655 94.1315 280.655 94.4882V106.009C280.655 106.185 280.69 106.36 280.758 106.523C280.826 106.685 280.925 106.833 281.05 106.958C281.175 107.082 281.323 107.181 281.486 107.248C281.649 107.315 281.824 107.349 282 107.349H293.516C293.872 107.349 294.213 107.208 294.465 106.957C294.717 106.706 294.86 106.365 294.861 106.009V94.4882C294.86 94.1318 294.718 93.7903 294.466 93.5383C294.214 93.2863 293.872 93.1443 293.516 93.1432Z" fill="#A839FF"/>
<path d="M293.516 112.776H282C281.644 112.776 281.302 112.917 281.049 113.17C280.797 113.422 280.655 113.764 280.655 114.121V125.641C280.655 125.818 280.69 125.992 280.758 126.155C280.826 126.318 280.925 126.466 281.05 126.59C281.175 126.715 281.323 126.813 281.486 126.88C281.649 126.947 281.824 126.982 282 126.981H293.516C293.872 126.981 294.213 126.84 294.465 126.589C294.717 126.338 294.86 125.997 294.861 125.641V114.121C294.86 113.764 294.718 113.423 294.466 113.171C294.214 112.919 293.872 112.777 293.516 112.776Z" fill="white"/>
<path d="M293.516 132.408H282C281.644 132.408 281.302 132.55 281.049 132.802C280.797 133.054 280.655 133.396 280.655 133.753V145.268C280.655 145.445 280.689 145.62 280.757 145.783C280.824 145.947 280.923 146.095 281.048 146.22C281.173 146.345 281.322 146.444 281.485 146.512C281.648 146.579 281.824 146.614 282 146.613H293.516C293.873 146.613 294.215 146.471 294.467 146.219C294.719 145.967 294.861 145.625 294.861 145.268V133.753C294.86 133.396 294.718 133.055 294.466 132.803C294.214 132.551 293.872 132.409 293.516 132.408Z" fill="white"/>
<path d="M293.516 152.04H282C281.644 152.04 281.302 152.182 281.049 152.434C280.797 152.686 280.655 153.028 280.655 153.385V164.901C280.655 165.077 280.689 165.252 280.757 165.416C280.824 165.579 280.923 165.727 281.048 165.852C281.173 165.977 281.322 166.076 281.485 166.144C281.648 166.211 281.824 166.246 282 166.246H293.516C293.873 166.245 294.215 166.104 294.467 165.852C294.719 165.599 294.861 165.257 294.861 164.901V153.385C294.86 153.029 294.718 152.687 294.466 152.435C294.214 152.183 293.872 152.041 293.516 152.04Z" fill="#E0E0E0"/>
<path d="M293.516 171.672H282C281.824 171.672 281.648 171.707 281.485 171.774C281.322 171.841 281.173 171.941 281.048 172.065C280.923 172.19 280.824 172.339 280.757 172.502C280.689 172.666 280.655 172.841 280.655 173.017V184.533C280.655 184.71 280.689 184.885 280.757 185.048C280.824 185.211 280.923 185.36 281.048 185.485C281.173 185.61 281.322 185.709 281.485 185.776C281.648 185.844 281.824 185.878 282 185.878H293.516C293.873 185.878 294.215 185.736 294.467 185.484C294.719 185.232 294.861 184.89 294.861 184.533V173.017C294.861 172.661 294.719 172.319 294.467 172.066C294.215 171.814 293.873 171.672 293.516 171.672Z" fill="#A839FF"/>
<path d="M317.706 93.1432H306.185C305.829 93.1445 305.488 93.2867 305.237 93.5388C304.986 93.791 304.845 94.1323 304.845 94.4882V106.009C304.845 106.364 304.986 106.705 305.238 106.956C305.489 107.208 305.83 107.349 306.185 107.349H317.706C318.062 107.349 318.403 107.208 318.655 106.957C318.907 106.706 319.05 106.365 319.051 106.009V94.4882C319.05 94.1318 318.908 93.7903 318.656 93.5383C318.404 93.2863 318.062 93.1443 317.706 93.1432Z" fill="white"/>
<path d="M317.706 112.776H306.185C305.829 112.777 305.488 112.919 305.237 113.171C304.986 113.423 304.845 113.765 304.845 114.121V125.641C304.845 125.997 304.986 126.337 305.238 126.589C305.489 126.84 305.83 126.981 306.185 126.981H317.706C318.062 126.981 318.403 126.84 318.655 126.589C318.907 126.338 319.05 125.997 319.051 125.641V114.121C319.05 113.764 318.908 113.423 318.656 113.171C318.404 112.919 318.062 112.777 317.706 112.776Z" fill="white"/>
<path d="M317.706 132.408H306.185C305.829 132.409 305.488 132.551 305.237 132.803C304.986 133.056 304.845 133.397 304.845 133.753V145.268C304.845 145.445 304.879 145.619 304.946 145.782C305.013 145.946 305.112 146.094 305.236 146.219C305.361 146.344 305.509 146.443 305.671 146.51C305.834 146.578 306.009 146.613 306.185 146.613H317.706C318.062 146.613 318.404 146.471 318.657 146.219C318.909 145.967 319.051 145.625 319.051 145.268V133.753C319.05 133.396 318.908 133.055 318.656 132.803C318.404 132.551 318.062 132.409 317.706 132.408Z" fill="white"/>
<path d="M317.706 152.04H306.185C305.829 152.041 305.488 152.184 305.237 152.436C304.986 152.688 304.845 153.029 304.845 153.385V164.901C304.845 165.077 304.879 165.252 304.946 165.415C305.013 165.578 305.112 165.726 305.236 165.851C305.361 165.976 305.509 166.075 305.671 166.143C305.834 166.21 306.009 166.245 306.185 166.246H317.706C318.062 166.245 318.404 166.104 318.657 165.852C318.909 165.599 319.051 165.257 319.051 164.901V153.385C319.05 153.029 318.908 152.687 318.656 152.435C318.404 152.183 318.062 152.041 317.706 152.04Z" fill="#9829EF"/>
<path d="M317.706 171.672H306.185C306.009 171.672 305.834 171.707 305.671 171.775C305.509 171.843 305.361 171.942 305.236 172.067C305.112 172.192 305.013 172.34 304.946 172.503C304.879 172.666 304.845 172.841 304.845 173.017V184.533C304.845 184.709 304.879 184.884 304.946 185.047C305.013 185.21 305.112 185.358 305.236 185.483C305.361 185.608 305.509 185.707 305.671 185.775C305.834 185.843 306.009 185.878 306.185 185.878H317.706C318.062 185.878 318.405 185.736 318.657 185.484C318.909 185.232 319.051 184.89 319.051 184.533V173.017C319.051 172.661 318.909 172.319 318.657 172.066C318.404 171.814 318.062 171.672 317.706 171.672Z" fill="#E6E6E6"/>
<path d="M341.896 93.1432H330.375C330.019 93.1445 329.678 93.2867 329.427 93.5388C329.176 93.791 329.035 94.1323 329.035 94.4882V106.009C329.035 106.364 329.176 106.705 329.428 106.956C329.679 107.208 330.02 107.349 330.375 107.349H341.896C342.252 107.349 342.593 107.208 342.845 106.957C343.097 106.706 343.24 106.365 343.241 106.009V94.4882C343.24 94.1318 343.098 93.7903 342.846 93.5383C342.594 93.2863 342.252 93.1443 341.896 93.1432Z" fill="white"/>
<path d="M341.896 112.776H330.375C330.019 112.777 329.678 112.919 329.427 113.171C329.176 113.423 329.035 113.765 329.035 114.121V125.641C329.035 125.997 329.176 126.337 329.428 126.589C329.679 126.84 330.02 126.981 330.375 126.981H341.896C342.252 126.981 342.593 126.84 342.845 126.589C343.097 126.338 343.24 125.997 343.241 125.641V114.121C343.24 113.764 343.098 113.423 342.846 113.171C342.594 112.919 342.252 112.777 341.896 112.776Z" fill="white"/>
<path d="M341.896 132.408H330.375C330.019 132.409 329.678 132.551 329.427 132.803C329.176 133.056 329.035 133.397 329.035 133.753V145.268C329.035 145.445 329.069 145.619 329.136 145.782C329.203 145.946 329.302 146.094 329.426 146.219C329.551 146.344 329.699 146.443 329.861 146.51C330.024 146.578 330.199 146.613 330.375 146.613H341.896C342.252 146.613 342.594 146.471 342.847 146.219C343.099 145.967 343.241 145.625 343.241 145.268V133.753C343.24 133.396 343.098 133.055 342.846 132.803C342.594 132.551 342.252 132.409 341.896 132.408Z" fill="#A839FF"/>
<path d="M341.896 152.04H330.375C330.019 152.041 329.678 152.184 329.427 152.436C329.176 152.688 329.035 153.029 329.035 153.385V164.901C329.035 165.077 329.069 165.252 329.136 165.415C329.203 165.578 329.302 165.726 329.426 165.851C329.551 165.976 329.698 166.075 329.861 166.143C330.024 166.21 330.199 166.245 330.375 166.246H341.896C342.252 166.245 342.594 166.104 342.847 165.851C343.099 165.599 343.241 165.257 343.241 164.901V153.385C343.24 153.029 343.098 152.687 342.846 152.435C342.594 152.183 342.252 152.041 341.896 152.04Z" fill="#E6E6E6"/>
<path d="M341.896 171.672H330.375C330.199 171.672 330.024 171.707 329.861 171.775C329.699 171.843 329.551 171.942 329.426 172.067C329.302 172.192 329.203 172.34 329.136 172.503C329.069 172.666 329.035 172.841 329.035 173.017V184.533C329.035 184.709 329.069 184.884 329.136 185.047C329.203 185.21 329.302 185.358 329.426 185.483C329.551 185.608 329.698 185.707 329.861 185.775C330.024 185.843 330.199 185.878 330.375 185.878H341.896C342.252 185.878 342.594 185.736 342.847 185.484C343.099 185.232 343.241 184.89 343.241 184.533V173.017C343.241 172.661 343.099 172.319 342.847 172.066C342.594 171.814 342.252 171.672 341.896 171.672Z" fill="white"/>
<path d="M366.086 93.1432H354.565C354.209 93.1445 353.868 93.2867 353.617 93.5388C353.366 93.791 353.225 94.1323 353.225 94.4882V106.009C353.225 106.364 353.366 106.705 353.618 106.956C353.869 107.208 354.21 107.349 354.565 107.349H366.086C366.442 107.349 366.783 107.208 367.035 106.957C367.287 106.706 367.429 106.365 367.431 106.009V94.4882C367.43 94.1318 367.288 93.7903 367.036 93.5383C366.784 93.2863 366.442 93.1443 366.086 93.1432Z" fill="#881ADE"/>
<path d="M366.086 112.776H354.565C354.209 112.777 353.868 112.919 353.617 113.171C353.366 113.423 353.225 113.765 353.225 114.121V125.641C353.225 125.997 353.366 126.337 353.618 126.589C353.869 126.84 354.21 126.981 354.565 126.981H366.086C366.442 126.981 366.783 126.84 367.035 126.589C367.287 126.338 367.429 125.997 367.431 125.641V114.121C367.43 113.764 367.288 113.423 367.036 113.171C366.784 112.919 366.442 112.777 366.086 112.776Z" fill="#9829EF"/>
<path d="M366.086 132.408H354.565C354.209 132.409 353.868 132.551 353.617 132.803C353.366 133.056 353.225 133.397 353.225 133.753V145.268C353.225 145.445 353.259 145.619 353.326 145.782C353.393 145.946 353.492 146.094 353.616 146.219C353.741 146.344 353.888 146.443 354.051 146.51C354.214 146.578 354.389 146.613 354.565 146.613H366.086C366.442 146.613 366.784 146.471 367.037 146.219C367.289 145.967 367.431 145.625 367.431 145.268V133.753C367.43 133.396 367.288 133.055 367.036 132.803C366.784 132.551 366.442 132.409 366.086 132.408Z" fill="#E6E6E6"/>
<path d="M366.086 152.04H354.565C354.209 152.041 353.868 152.184 353.617 152.436C353.366 152.688 353.225 153.029 353.225 153.385V164.901C353.225 165.077 353.259 165.252 353.326 165.415C353.393 165.578 353.492 165.726 353.616 165.851C353.741 165.976 353.888 166.075 354.051 166.143C354.214 166.21 354.389 166.245 354.565 166.246H366.086C366.442 166.245 366.784 166.104 367.037 165.851C367.289 165.599 367.431 165.257 367.431 164.901V153.385C367.43 153.029 367.288 152.687 367.036 152.435C366.784 152.183 366.442 152.041 366.086 152.04Z" fill="white"/>
<path d="M366.086 171.672H354.565C354.389 171.672 354.214 171.707 354.051 171.775C353.888 171.843 353.741 171.942 353.616 172.067C353.492 172.192 353.393 172.34 353.326 172.503C353.259 172.666 353.225 172.841 353.225 173.017V184.533C353.225 184.709 353.259 184.884 353.326 185.047C353.393 185.21 353.492 185.358 353.616 185.483C353.741 185.608 353.888 185.707 354.051 185.775C354.214 185.843 354.389 185.878 354.565 185.878H366.086C366.442 185.878 366.784 185.736 367.037 185.484C367.289 185.232 367.431 184.89 367.431 184.533V173.017C367.431 172.661 367.289 172.319 367.037 172.066C366.784 171.814 366.442 171.672 366.086 171.672Z" fill="#A839FF"/>
<path d="M390.276 93.1432H378.755C378.399 93.1445 378.058 93.2867 377.807 93.5388C377.556 93.791 377.415 94.1323 377.415 94.4882V106.009C377.415 106.364 377.556 106.705 377.808 106.956C378.059 107.208 378.4 107.349 378.755 107.349H390.276C390.631 107.349 390.973 107.208 391.225 106.957C391.477 106.706 391.619 106.365 391.621 106.009V94.4882C391.62 94.1318 391.478 93.7903 391.226 93.5383C390.974 93.2863 390.632 93.1443 390.276 93.1432Z" fill="#A839FF"/>
<path d="M390.276 112.776H378.755C378.399 112.777 378.058 112.919 377.807 113.171C377.556 113.423 377.415 113.765 377.415 114.121V125.641C377.415 125.997 377.556 126.337 377.808 126.589C378.059 126.84 378.4 126.981 378.755 126.981H390.276C390.631 126.981 390.973 126.84 391.225 126.589C391.477 126.338 391.619 125.997 391.621 125.641V114.121C391.62 113.764 391.478 113.423 391.226 113.171C390.974 112.919 390.632 112.777 390.276 112.776Z" fill="#9829EF"/>
<path d="M390.276 132.408H378.755C378.399 132.409 378.058 132.551 377.807 132.803C377.556 133.056 377.415 133.397 377.415 133.753V145.268C377.415 145.445 377.449 145.619 377.516 145.782C377.583 145.946 377.682 146.094 377.806 146.219C377.931 146.344 378.078 146.443 378.241 146.51C378.404 146.578 378.579 146.613 378.755 146.613H390.276C390.632 146.613 390.974 146.471 391.226 146.219C391.479 145.967 391.62 145.625 391.621 145.268V133.753C391.62 133.396 391.478 133.055 391.226 132.803C390.974 132.551 390.632 132.409 390.276 132.408Z" fill="#E0E0E0"/>
<path d="M390.276 152.04H378.755C378.399 152.041 378.058 152.184 377.807 152.436C377.556 152.688 377.415 153.029 377.415 153.385V164.901C377.415 165.077 377.449 165.252 377.516 165.415C377.583 165.578 377.682 165.726 377.806 165.851C377.931 165.976 378.078 166.075 378.241 166.143C378.404 166.21 378.579 166.245 378.755 166.246H390.276C390.632 166.245 390.974 166.104 391.227 165.851C391.479 165.599 391.62 165.257 391.621 164.901V153.385C391.62 153.029 391.478 152.687 391.226 152.435C390.974 152.183 390.632 152.041 390.276 152.04Z" fill="#A839FF"/>
<path d="M390.276 171.672H378.755C378.579 171.672 378.404 171.707 378.241 171.775C378.078 171.843 377.931 171.942 377.806 172.067C377.682 172.192 377.583 172.34 377.516 172.503C377.449 172.666 377.415 172.841 377.415 173.017V184.533C377.415 184.709 377.449 184.884 377.516 185.047C377.583 185.21 377.682 185.358 377.806 185.483C377.931 185.608 378.078 185.707 378.241 185.775C378.404 185.843 378.579 185.878 378.755 185.878H390.276C390.632 185.878 390.974 185.736 391.227 185.484C391.479 185.232 391.62 184.89 391.621 184.533V173.017C391.62 172.661 391.479 172.319 391.227 172.066C390.974 171.814 390.632 171.672 390.276 171.672Z" fill="#A839FF"/>
<path d="M414.465 93.1432H402.944C402.588 93.1445 402.248 93.2867 401.996 93.5388C401.745 93.791 401.604 94.1323 401.604 94.4882V106.009C401.605 106.364 401.746 106.705 401.997 106.956C402.248 107.208 402.589 107.349 402.944 107.349H414.465C414.821 107.349 415.162 107.208 415.414 106.957C415.667 106.706 415.809 106.365 415.81 106.009V94.4882C415.809 94.1318 415.667 93.7903 415.415 93.5383C415.163 93.2863 414.821 93.1443 414.465 93.1432Z" fill="#E6E6E6"/>
<path d="M414.465 112.776H402.944C402.588 112.777 402.248 112.919 401.996 113.171C401.745 113.423 401.604 113.765 401.604 114.121V125.641C401.605 125.997 401.746 126.337 401.997 126.589C402.248 126.84 402.589 126.981 402.944 126.981H414.465C414.821 126.981 415.162 126.84 415.414 126.589C415.667 126.338 415.809 125.997 415.81 125.641V114.121C415.809 113.764 415.667 113.423 415.415 113.171C415.163 112.919 414.821 112.777 414.465 112.776Z" fill="#881ADE"/>
<path d="M414.465 132.408H402.944C402.588 132.409 402.248 132.551 401.996 132.803C401.745 133.056 401.604 133.397 401.604 133.753V145.268C401.604 145.445 401.638 145.619 401.705 145.782C401.772 145.946 401.871 146.094 401.996 146.219C402.12 146.344 402.268 146.443 402.431 146.51C402.593 146.578 402.768 146.613 402.944 146.613H414.465C414.822 146.613 415.164 146.471 415.416 146.219C415.668 145.967 415.81 145.625 415.81 145.268V133.753C415.809 133.396 415.667 133.055 415.415 132.803C415.163 132.551 414.821 132.409 414.465 132.408Z" fill="#A839FF"/>
<path d="M414.465 152.04H402.944C402.588 152.041 402.248 152.184 401.996 152.436C401.745 152.688 401.604 153.029 401.604 153.385V164.901C401.604 165.077 401.638 165.252 401.705 165.415C401.772 165.578 401.871 165.726 401.996 165.851C402.12 165.976 402.268 166.075 402.431 166.143C402.593 166.21 402.768 166.245 402.944 166.246H414.465C414.822 166.245 415.164 166.104 415.416 165.851C415.668 165.599 415.81 165.257 415.81 164.901V153.385C415.809 153.029 415.667 152.687 415.415 152.435C415.163 152.183 414.821 152.041 414.465 152.04Z" fill="#A839FF"/>
<path d="M414.465 171.672H402.944C402.768 171.672 402.593 171.707 402.431 171.775C402.268 171.843 402.12 171.942 401.996 172.067C401.871 172.192 401.772 172.34 401.705 172.503C401.638 172.666 401.604 172.841 401.604 173.017V184.533C401.604 184.709 401.638 184.884 401.705 185.047C401.772 185.21 401.871 185.358 401.996 185.483C402.12 185.608 402.268 185.707 402.431 185.775C402.593 185.843 402.768 185.878 402.944 185.878H414.465C414.822 185.878 415.164 185.736 415.416 185.484C415.668 185.232 415.81 184.89 415.81 184.533V173.017C415.81 172.661 415.668 172.319 415.416 172.066C415.164 171.814 414.822 171.672 414.465 171.672Z" fill="#E6E6E6"/>
<path d="M438.655 93.1432H427.134C426.778 93.1445 426.438 93.2867 426.186 93.5388C425.935 93.791 425.794 94.1323 425.794 94.4882V106.009C425.795 106.364 425.936 106.705 426.187 106.956C426.438 107.208 426.779 107.349 427.134 107.349H438.655C439.011 107.349 439.352 107.208 439.604 106.957C439.857 106.706 439.999 106.365 440 106.009V94.4882C439.999 94.1318 439.857 93.7903 439.605 93.5383C439.353 93.2863 439.011 93.1443 438.655 93.1432Z" fill="#E6E6E6"/>
<path d="M438.655 112.776H427.134C426.778 112.777 426.438 112.919 426.186 113.171C425.935 113.423 425.794 113.765 425.794 114.121V125.641C425.795 125.997 425.936 126.337 426.187 126.589C426.438 126.84 426.779 126.981 427.134 126.981H438.655C439.011 126.981 439.352 126.84 439.604 126.589C439.857 126.338 439.999 125.997 440 125.641V114.121C439.999 113.764 439.857 113.423 439.605 113.171C439.353 112.919 439.011 112.777 438.655 112.776Z" fill="#E6E6E6"/>
<path d="M438.655 132.408H427.134C426.778 132.409 426.438 132.551 426.186 132.803C425.935 133.056 425.794 133.397 425.794 133.753V145.268C425.794 145.445 425.828 145.619 425.895 145.782C425.962 145.946 426.061 146.094 426.185 146.219C426.31 146.344 426.458 146.443 426.621 146.51C426.783 146.578 426.958 146.613 427.134 146.613H438.655C439.012 146.613 439.354 146.471 439.606 146.219C439.858 145.967 440 145.625 440 145.268V133.753C439.999 133.396 439.857 133.055 439.605 132.803C439.353 132.551 439.011 132.409 438.655 132.408Z" fill="#A839FF"/>
<path d="M438.655 152.04H427.134C426.778 152.041 426.438 152.184 426.186 152.436C425.935 152.688 425.794 153.029 425.794 153.385V164.901C425.794 165.077 425.828 165.252 425.895 165.415C425.962 165.578 426.061 165.726 426.185 165.851C426.31 165.976 426.458 166.075 426.621 166.143C426.783 166.21 426.958 166.245 427.134 166.246H438.655C439.012 166.245 439.354 166.104 439.606 165.851C439.858 165.599 440 165.257 440 164.901V153.385C439.999 153.029 439.857 152.687 439.605 152.435C439.353 152.183 439.011 152.041 438.655 152.04Z" fill="#E6E6E6"/>
<path d="M438.655 171.672H427.134C426.958 171.672 426.783 171.707 426.621 171.775C426.458 171.843 426.31 171.942 426.185 172.067C426.061 172.192 425.962 172.34 425.895 172.503C425.828 172.666 425.794 172.841 425.794 173.017V184.533C425.794 184.709 425.828 184.884 425.895 185.047C425.962 185.21 426.061 185.358 426.185 185.483C426.31 185.608 426.458 185.707 426.621 185.775C426.783 185.843 426.958 185.878 427.134 185.878H438.655C439.012 185.878 439.354 185.736 439.606 185.484C439.858 185.232 440 184.89 440 184.533V173.017C440 172.661 439.858 172.319 439.606 172.066C439.354 171.814 439.012 171.672 438.655 171.672Z" fill="#E6E6E6"/>
<path d="M173.869 341.457H173.548L173.822 341.421L173.869 341.457Z" fill="#2F2E41"/>
<path d="M146.306 126.772C165.826 126.772 181.65 110.947 181.65 91.4273C181.65 71.9072 165.826 56.0831 146.306 56.0831C126.786 56.0831 110.961 71.9072 110.961 91.4273C110.961 110.947 126.786 126.772 146.306 126.772Z" fill="#FFB6B6"/>
<path d="M177.257 65.5135C177.257 65.5135 186.502 47.8414 166.164 46.2348C166.164 46.2348 148.826 30.5071 131.154 43.3596C131.154 43.3596 121.515 43.3596 116.244 54.2676C116.244 54.2676 108.662 51.3923 106.996 59.0873C106.996 59.0873 101.449 75.1529 106.996 89.6119C112.544 104.071 114.386 105.677 114.386 105.677C114.386 105.677 105.271 75.3634 127.459 73.7568C149.647 72.1502 174.476 58.284 176.326 75.9561C178.175 93.6282 180.957 97.9825 180.957 97.9825C180.957 97.9825 198.52 72.7431 177.257 65.5135Z" fill="#2F2E41"/>
<path d="M237.733 178.532L237.619 179.132L236.341 185.878L227.511 232.54L226.988 235.287L225.891 241.097L224.391 249.022L221.065 266.585L220.113 271.619L219.756 273.507L219.632 274.169L218.644 279.378L218.344 280.951L215.933 298.814L213.828 314.38L220.873 321.426L216.673 325.627L213.916 341.42L213.921 341.457H101.388C96.8358 338.508 92.3489 335.468 87.9275 332.336L88.8536 325.404C88.8536 325.404 92.0402 313.025 90.7003 311.545C89.3657 310.066 86.4376 307.422 86.4376 307.422L90.1261 298.814L90.6383 297.619L89.7795 279.808L89.7589 279.378L89.4744 273.507L89.4381 272.751L89.3812 271.618L88.2897 249.022L88.269 248.649L87.9379 241.8L87.6275 235.287L87.493 232.54L86.1635 205.055L85.2634 186.39L84.4771 170.141L87.6379 169.07L121.445 157.58L135.449 139.376L164.594 139.593L178.862 139.702L202.669 161.781L208.085 164.368L208.127 164.388L212.012 166.246L221.862 170.948L232.275 175.925L237.619 178.475L237.733 178.532Z" fill="#CCCCCC"/>
<path d="M139.215 288.432C137.079 289.259 134.788 289.609 132.503 289.455C130.217 289.301 127.993 288.648 125.988 287.541C123.982 286.435 122.244 284.903 120.894 283.052C119.545 281.201 118.618 279.076 118.179 276.829L63.0537 269.008L82.2167 247.331L131.626 258.081C135.452 257.593 139.323 258.525 142.507 260.701C145.691 262.877 147.966 266.145 148.902 269.886C149.837 273.627 149.368 277.581 147.582 281C145.797 284.418 142.82 287.062 139.215 288.432Z" fill="#FFB6B6"/>
<path d="M114.637 249.022C113.616 247.727 112.17 246.835 110.555 246.503L87.938 241.8L85.6153 241.319C84.2654 241.037 82.9902 240.474 81.8732 239.665C80.7561 238.857 79.8225 237.821 79.1332 236.627C78.4182 235.373 77.9857 233.978 77.8658 232.54C77.7579 231.232 77.9145 229.917 78.3262 228.671L86.1636 205.055L91.2488 189.732C91.8651 187.884 92.2288 185.961 92.33 184.016C92.6134 178.632 90.9476 173.326 87.6379 169.07C84.7282 165.33 80.6924 162.624 76.1268 161.353C71.5612 160.083 66.7079 160.314 62.2841 162.014C62.1547 162.061 62.0202 162.112 61.8909 162.164C58.7183 163.431 55.8838 165.418 53.6114 167.969C51.339 170.52 49.691 173.564 48.7976 176.861L43.2726 196.959L31.876 238.391C30.7352 242.542 30.5047 246.891 31.2004 251.139C31.896 255.388 33.5014 259.436 35.9066 263.006C38.3118 266.577 41.4601 269.585 45.1359 271.826C48.8118 274.067 52.9284 275.487 57.204 275.99L89.7796 279.808L104.854 281.577C106.597 281.786 108.356 281.331 109.778 280.303C111.201 279.274 112.184 277.747 112.531 276.026C112.556 275.932 112.575 275.837 112.588 275.742L112.95 273.507L116.018 254.687L116.049 254.495C116.209 253.535 116.166 252.552 115.923 251.609C115.679 250.666 115.241 249.785 114.637 249.022Z" fill="#CCCCCC"/>
<path d="M174.327 289.035C176.559 289.553 178.876 289.576 181.117 289.101C183.358 288.627 185.467 287.666 187.297 286.288C189.126 284.91 190.631 283.148 191.706 281.125C192.781 279.102 193.399 276.869 193.517 274.581L246.988 259.065L224.96 240.307L177.56 257.917C173.704 257.974 170.003 259.443 167.157 262.046C164.312 264.649 162.52 268.205 162.122 272.041C161.723 275.876 162.746 279.725 164.995 282.857C167.245 285.989 170.565 288.188 174.327 289.035Z" fill="#FFB6B6"/>
<path d="M273.537 224.356L248.105 165.827C246.025 161.021 242.31 157.108 237.619 154.782C236.169 154.068 234.646 153.513 233.077 153.126C232.834 153.064 232.591 153.007 232.348 152.961C229.02 152.235 225.569 152.298 222.27 153.147C219.255 153.922 216.437 155.323 214 157.26C211.563 159.197 209.562 161.626 208.127 164.388C208.111 164.411 208.097 164.436 208.085 164.461C206.482 167.562 205.63 170.996 205.597 174.487C205.563 177.978 206.35 181.428 207.894 184.559L208.209 185.19L226.181 221.283C226.795 222.517 227.141 223.867 227.196 225.245C227.251 226.622 227.014 227.995 226.501 229.275C225.989 230.554 225.211 231.711 224.22 232.668C223.228 233.626 222.046 234.363 220.749 234.832L219.487 235.287L196.787 243.487C195.084 244.094 193.683 245.339 192.879 246.959C192.075 248.58 191.931 250.448 192.478 252.172L192.535 252.353L198.898 272.715C198.929 272.808 198.96 272.901 198.996 272.994C199.052 273.17 199.121 273.341 199.203 273.507C199.879 275.023 201.074 276.249 202.574 276.963C204.073 277.677 205.778 277.833 207.382 277.402L219.632 274.169L222.13 273.507L253.765 265.152C257.927 264.052 261.803 262.066 265.126 259.329C268.449 256.592 271.142 253.169 273.02 249.295C274.897 245.421 275.916 241.186 276.005 236.882C276.094 232.578 275.252 228.305 273.537 224.356Z" fill="#CCCCCC"/>
<path d="M23.2261 273.507C30.5567 282.448 38.4626 290.902 46.8934 298.814H280.706C282.959 298.817 285.118 299.714 286.711 301.308C288.303 302.901 289.199 305.061 289.201 307.313L289.537 366.562C303.921 359.954 317.391 351.515 329.614 341.457C333.007 338.668 336.296 335.759 339.479 332.729C341.564 330.753 343.599 328.729 345.583 326.656C360.464 311.155 372.513 293.166 381.185 273.507H23.2261Z" fill="#232323"/>
<path d="M345.584 326.656C343.603 328.73 341.568 330.755 339.48 332.729H289.708V326.656H345.584Z" fill="white"/>
<path d="M237.268 132.408C237.022 131.954 236.658 131.575 236.214 131.311C235.771 131.047 235.264 130.907 234.748 130.908H65.1501C64.3898 130.91 63.6612 131.213 63.124 131.751C62.5868 132.289 62.2848 133.018 62.2842 133.779V235.287H237.619V133.779C237.622 133.299 237.501 132.827 237.268 132.408Z" fill="#232323"/>
<path d="M62.1309 232.539V245.065C62.1309 245.584 62.2331 246.099 62.4319 246.578C62.6306 247.058 62.9218 247.494 63.289 247.861C63.6562 248.228 64.0922 248.52 64.5719 248.718C65.0517 248.917 65.5659 249.02 66.0852 249.02H130.8V273.74H129.94C129.873 273.74 129.806 273.754 129.744 273.78C129.682 273.805 129.625 273.843 129.577 273.891C129.529 273.939 129.492 273.995 129.466 274.058C129.44 274.12 129.427 274.187 129.427 274.254V275.974C129.427 276.041 129.44 276.108 129.466 276.17C129.492 276.232 129.529 276.289 129.577 276.337C129.625 276.384 129.682 276.422 129.744 276.448C129.806 276.474 129.873 276.487 129.94 276.487H170.115C170.182 276.487 170.249 276.474 170.311 276.448C170.374 276.422 170.43 276.384 170.478 276.337C170.526 276.289 170.563 276.232 170.589 276.17C170.615 276.108 170.628 276.041 170.628 275.974V274.254C170.628 274.187 170.615 274.12 170.589 274.058C170.563 273.995 170.526 273.939 170.478 273.891C170.43 273.843 170.374 273.805 170.311 273.78C170.249 273.754 170.182 273.74 170.115 273.74H169.255V249.02H233.97C234.489 249.02 235.003 248.917 235.483 248.718C235.963 248.52 236.399 248.228 236.766 247.861C237.133 247.494 237.424 247.058 237.623 246.578C237.822 246.099 237.924 245.584 237.924 245.065V232.539H62.1309Z" fill="#232323"/>
<path d="M147.903 196.587C156.848 196.587 164.099 189.336 164.099 180.391C164.099 171.447 156.848 164.196 147.903 164.196C138.959 164.196 131.708 171.447 131.708 180.391C131.708 189.336 138.959 196.587 147.903 196.587Z" fill="#F0F0F0"/>
<path d="M189.167 89.496H186.581C186.581 69.9414 167.228 57.1274 147.704 57.117C144.864 57.1087 142.031 57.3843 139.246 57.9395C136.111 58.5655 132.857 59.3156 129.66 60.2933C117.053 64.1577 105.362 71.6278 105.362 89.496C105.359 92.9662 105.8 96.4224 106.675 99.7804L104.172 100.432C103.243 96.861 102.774 93.186 102.775 89.496C102.775 73.8833 109.184 63.1593 120.255 56.7652C126.075 53.4026 133.178 51.2351 141.315 50.1797C144.701 49.7292 148.125 49.6253 151.532 49.8694C173.984 51.4834 189.167 68.6998 189.167 89.496Z" fill="#6701B8"/>
<path d="M193.477 90.929L192.457 83.3969C192.206 81.4947 191.29 79.7428 189.871 78.4513C188.96 77.6093 187.869 76.9855 186.682 76.627C185.494 76.2685 184.241 76.1847 183.016 76.382L181.397 76.6044C180.954 76.6628 180.527 76.8085 180.141 77.0332C179.754 77.2578 179.417 77.557 179.147 77.9133C178.875 78.2683 178.676 78.6738 178.561 79.1062C178.447 79.5386 178.419 79.9894 178.479 80.4326L180.833 97.7835C180.93 98.4907 181.247 99.1495 181.739 99.6666C182.231 100.184 182.874 100.533 183.575 100.665C183.783 100.707 183.994 100.727 184.206 100.727C184.358 100.727 184.511 100.717 184.661 100.696L186.472 100.453C187.576 100.306 188.638 99.9358 189.594 99.3637C190.549 98.7917 191.378 98.0304 192.028 97.1265C192.168 96.9299 192.302 96.7282 192.426 96.5212C193.396 94.8285 193.766 92.8582 193.477 90.929Z" fill="#6701B8"/>
<path d="M180.352 76.92C179.877 77.1508 179.464 77.4913 179.147 77.9133C178.875 78.2684 178.676 78.6738 178.561 79.1062C178.447 79.5386 178.419 79.9894 178.479 80.4326L180.833 97.7835C180.93 98.4907 181.247 99.1495 181.739 99.6666C182.231 100.184 182.874 100.533 183.575 100.665L180.352 76.92Z" fill="white"/>
<path d="M193.477 90.929L192.458 83.3969C192.206 81.4947 191.29 79.7428 189.871 78.4513L192.215 95.7142C192.25 95.9914 192.321 96.2627 192.427 96.5213C193.396 94.8286 193.766 92.8582 193.477 90.929Z" fill="#3F3D56"/>
<path d="M185.422 96.3561C186.13 96.2601 186.486 94.5757 186.217 92.5939C185.948 90.6121 185.156 89.0833 184.449 89.1794C183.741 89.2754 183.385 90.9598 183.654 92.9416C183.923 94.9234 184.714 96.4521 185.422 96.3561Z" fill="#3F3D56"/>
<path d="M183.87 87.0443C184.578 86.9483 184.934 85.2639 184.665 83.2821C184.396 81.3003 183.605 79.7716 182.897 79.8676C182.189 79.9636 181.833 81.648 182.102 83.6298C182.371 85.6116 183.163 87.1403 183.87 87.0443Z" fill="#3F3D56"/>
<path d="M193.699 90.6656C194.407 90.5696 194.763 88.8852 194.494 86.9034C194.225 84.9216 193.433 83.3928 192.725 83.4889C192.018 83.5849 191.662 85.2693 191.931 87.2511C192.199 89.2329 192.991 90.7616 193.699 90.6656Z" fill="#3F3D56"/>
<path d="M147.704 57.1171C144.865 57.1088 142.031 57.3843 139.246 57.9396C136.111 58.5656 132.857 59.3157 129.66 60.2934C124.668 60.0503 120.995 58.757 120.255 56.7653C126.075 53.4027 133.178 51.2351 141.315 50.1798C144.702 49.7293 148.125 49.6253 151.533 49.8694C151.893 50.0809 152.205 50.3663 152.448 50.7069C152.69 51.0475 152.858 51.4355 152.94 51.8456C153.183 53.6459 151.129 55.5599 147.704 57.1171Z" fill="#3F3D56"/>
<path d="M114.679 107.447L110.695 90.8877C110.553 90.2902 110.238 89.7481 109.789 89.3293C109.339 88.9105 108.777 88.6338 108.171 88.5339C107.999 88.5072 107.827 88.4934 107.653 88.4925C107.409 88.4934 107.166 88.5229 106.929 88.5804L105.387 88.9529C103.403 89.433 101.689 90.6808 100.623 92.4227C99.5575 94.1645 99.2262 96.2581 99.7021 98.244L101.487 105.673C101.894 107.422 102.865 108.988 104.249 110.132C104.474 110.313 104.709 110.481 104.953 110.634C105.82 111.177 106.787 111.542 107.798 111.705C108.808 111.868 109.841 111.828 110.835 111.586L112.371 111.213C112.778 111.118 113.16 110.941 113.494 110.691C113.991 110.328 114.369 109.827 114.58 109.249C114.79 108.672 114.825 108.044 114.679 107.447Z" fill="#6701B8"/>
<path d="M106.327 104.366C107.022 104.199 107.205 102.487 106.738 100.543C106.27 98.5983 105.327 97.1574 104.633 97.3246C103.938 97.4917 103.755 99.2034 104.223 101.148C104.691 103.092 105.633 104.533 106.327 104.366Z" fill="#3F3D56"/>
<path d="M101.155 105.918C101.849 105.751 102.033 104.039 101.565 102.095C101.097 100.15 100.154 98.7093 99.46 98.8764C98.7656 99.0435 98.582 100.755 99.0499 102.7C99.5178 104.644 100.46 106.085 101.155 105.918Z" fill="#3F3D56"/>
<path d="M114.932 107.385L110.949 90.8255C110.793 90.1791 110.451 89.5929 109.964 89.1402C109.477 88.6874 108.868 88.3883 108.212 88.2803L113.649 110.898C114.186 110.504 114.594 109.961 114.823 109.336C115.051 108.71 115.089 108.032 114.932 107.385Z" fill="white"/>
<path d="M100.602 94.9641C100.493 94.5036 100.286 94.0716 99.9972 93.6967C99.4373 95.1468 99.3344 96.7336 99.7023 98.2439L101.487 105.673C101.895 107.422 102.865 108.988 104.25 110.132L100.602 94.9641Z" fill="#3F3D56"/>
</g>
<defs>
<clipPath id="clip0_428_54">
<rect width="440" height="383.246" fill="white"/>
</clipPath>
</defs>
</svg>
